ffmpeg version 2.1.1 Copyright (c) 2000-2013 the FFmpeg developers
  built on Dec 20 2014 10:34:55 with gcc 4.7 (Debian 4.7.2-5)
  configuration: --enable-gpl --enable-nonfree --enable-postproc --enable-pthreads --enable-x11grab --enable-swscale --enable-version3 --enable-shared --disable-yasm --enable-filter=movie --enable-frei0r --enable-libdc1394 --enable-libfaac --enable-libmp3lame --enable-libx264 --enable-libxvid --enable-libfreetype --enable-libvorbis --enable-libgsm --enable-libopencore-amrnb --enable-libopencore-amrwb --enable-libopenjpeg --enable-librtmp --enable-libschroedinger --enable-libspeex --enable-libtheora --enable-libvpx --enable-libvo-amrwbenc --enable-libvo-aacenc --enable-libaacplus --enable-libxavs --enable-bzlib --enable-openssl --enable-gnutls --enable-openal --enable-libv4l2 --enable-libpulse --enable-libmodplug --enable-libass --enable-libcdio --enable-vdpau --enable-libbluray
  libavutil      52. 48.101 / 52. 48.101
  libavcodec     55. 39.101 / 55. 39.101
  libavformat    55. 19.104 / 55. 19.104
  libavdevice    55.  5.100 / 55.  5.100
  libavfilter     3. 90.100 /  3. 90.100
  libswscale      2.  5.101 /  2.  5.101
  libswresample   0. 17.104 /  0. 17.104
  libpostproc    52.  3.100 / 52.  3.100
Input #0, flv, from '/var/www/dragonsnet.co/web/www/temp/0411685001424636916.flv':
  Metadata:
    encoder         : Lavf55.33.100
  Duration: 00:03:33.50, start: 0.000000, bitrate: 1141 kb/s
    Stream #0:0: Video: h264 (Constrained Baseline), yuv420p, 640x360 [SAR 1:1 DAR 16:9], 1000 kb/s, 24 tbr, 1k tbn, 48 tbc
    Stream #0:1: Audio: mp3, 44100 Hz, stereo, s16p, 128 kb/s
Please use -b:a or -b:v, -b is ambiguous
Output #0, flv, to '/var/www/dragonsnet.co/web/www/upload/users/jag_1/videos/0411685001424636916.flv':
  Metadata:
    encoder         : Lavf55.19.104
    Stream #0:0: Video: flv1 (flv) ([2][0][0][0] / 0x0002), yuv420p, 512x384 [SAR 4:3 DAR 16:9], q=2-31, 1000 kb/s, 1k tbn, 30 tbc
    Stream #0:1: Audio: mp3 (libmp3lame) ([2][0][0][0] / 0x0002), 44100 Hz, stereo, s16p, 128 kb/s
Stream mapping:
  Stream #0:0 -> #0:0 (h264 -> flv)
  Stream #0:1 -> #0:1 (mp3 -> libmp3lame)
Press [q] to stop, [?] for help
frame=   80 fps=0.0 q=2.0 size=     450kB time=00:00:03.39 bitrate=1085.3kbits/s    frame=  163 fps=162 q=2.0 size=     918kB time=00:00:06.81 bitrate=1102.5kbits/s    frame=  241 fps=160 q=2.0 size=    1375kB time=00:00:10.03 bitrate=1122.5kbits/s    frame=  308 fps=153 q=5.3 size=    1951kB time=00:00:12.83 bitrate=1245.3kbits/s    frame=  356 fps= 99 q=6.1 size=    2245kB time=00:00:14.83 bitrate=1239.7kbits/s    frame=  424 fps=100 q=3.4 size=    2622kB time=00:00:17.66 bitrate=1216.1kbits/s    frame=  487 fps=103 q=4.5 size=    3005kB time=00:00:20.30 bitrate=1212.5kbits/s    frame=  559 fps=107 q=7.0 size=    3424kB time=00:00:23.30 bitrate=1203.9kbits/s    frame=  631 fps=110 q=6.9 size=    3861kB time=00:00:26.30 bitrate=1202.6kbits/s    frame=  704 fps=113 q=4.1 size=    4233kB time=00:00:29.33 bitrate=1182.2kbits/s    frame=  773 fps=115 q=17.3 size=    4731kB time=00:00:32.20 bitrate=1203.5kbits/s    frame=  841 fps=116 q=31.0 size=    5179kB time=00:00:35.03 bitrate=1211.1kbits/s    frame=  922 fps=119 q=2.0 size=    5379kB time=00:00:38.40 bitrate=1147.5kbits/s    frame=  995 fps=121 q=3.7 size=    5750kB time=00:00:41.46 bitrate=1135.9kbits/s    frame= 1065 fps=122 q=4.0 size=    6238kB time=00:00:44.36 bitrate=1151.8kbits/s    frame= 1134 fps=122 q=4.7 size=    6669kB time=00:00:47.23 bitrate=1156.6kbits/s    frame= 1208 fps=124 q=3.4 size=    7079kB time=00:00:50.33 bitrate=1152.1kbits/s    frame= 1279 fps=125 q=4.8 size=    7500kB time=00:00:53.30 bitrate=1152.7kbits/s    frame= 1349 fps=125 q=5.2 size=    7901kB time=00:00:56.20 bitrate=1151.6kbits/s    frame= 1421 fps=126 q=5.1 size=    8344kB time=00:00:59.20 bitrate=1154.6kbits/s    frame= 1496 fps=127 q=4.3 size=    8753kB time=00:01:02.33 bitrate=1150.3kbits/s    frame= 1568 fps=128 q=4.0 size=    9133kB time=00:01:05.33 bitrate=1145.2kbits/s    frame= 1630 fps=127 q=4.5 size=    9500kB time=00:01:07.90 bitrate=1146.1kbits/s    frame= 1703 fps=128 q=6.2 size=    9935kB time=00:01:10.96 bitrate=1146.8kbits/s    frame= 1764 fps=121 q=3.7 size=   10275kB time=00:01:13.50 bitrate=1145.2kbits/s    frame= 1836 fps=121 q=3.2 size=   10684kB time=00:01:16.50 bitrate=1144.1kbits/s    frame= 1908 fps=122 q=4.6 size=   11120kB time=00:01:19.50 bitrate=1145.9kbits/s    frame= 1978 fps=123 q=5.8 size=   11551kB time=00:01:22.40 bitrate=1148.3kbits/s    frame= 2053 fps=123 q=5.4 size=   11970kB time=00:01:25.53 bitrate=1146.4kbits/s    frame= 2132 fps=124 q=2.0 size=   12346kB time=00:01:28.83 bitrate=1138.5kbits/s    frame= 2209 fps=125 q=4.6 size=   12833kB time=00:01:32.03 bitrate=1142.3kbits/s    frame= 2290 fps=126 q=2.9 size=   13212kB time=00:01:35.40 bitrate=1134.5kbits/s    frame= 2369 fps=127 q=2.2 size=   13676kB time=00:01:38.70 bitrate=1135.1kbits/s    frame= 2446 fps=128 q=2.0 size=   14077kB time=00:01:41.90 bitrate=1131.7kbits/s    frame= 2524 fps=129 q=2.0 size=   14401kB time=00:01:45.16 bitrate=1121.8kbits/s    frame= 2597 fps=129 q=2.0 size=   14756kB time=00:01:48.20 bitrate=1117.2kbits/s    frame= 2674 fps=130 q=2.0 size=   15055kB time=00:01:51.40 bitrate=1107.1kbits/s    frame= 2735 fps=129 q=2.0 size=   15462kB time=00:01:53.96 bitrate=1111.4kbits/s    frame= 2779 fps=123 q=2.4 size=   15931kB time=00:01:55.80 bitrate=1127.0kbits/s    frame= 2850 fps=123 q=2.4 size=   16566kB time=00:01:58.73 bitrate=1143.0kbits/s    frame= 2924 fps=124 q=2.6 size=   17077kB time=00:02:01.83 bitrate=1148.2kbits/s    frame= 3000 fps=125 q=3.9 size=   17478kB time=00:02:05.00 bitrate=1145.5kbits/s    frame= 3070 fps=125 q=5.1 size=   17913kB time=00:02:07.90 bitrate=1147.3kbits/s    frame= 3140 fps=125 q=4.2 size=   18326kB time=00:02:10.83 bitrate=1147.4kbits/s    frame= 3212 fps=125 q=5.7 size=   18720kB time=00:02:13.83 bitrate=1145.9kbits/s    frame= 3282 fps=126 q=5.5 size=   19123kB time=00:02:16.73 bitrate=1145.7kbits/s    frame= 3349 fps=126 q=2.0 size=   19466kB time=00:02:19.53 bitrate=1142.8kbits/s    frame= 3412 fps=126 q=3.5 size=   19826kB time=00:02:22.16 bitrate=1142.4kbits/s    frame= 3481 fps=126 q=2.5 size=   20208kB time=00:02:25.03 bitrate=1141.4kbits/s    frame= 3552 fps=126 q=6.5 size=   20729kB time=00:02:28.00 bitrate=1147.4kbits/s    frame= 3623 fps=127 q=4.5 size=   21150kB time=00:02:30.96 bitrate=1147.7kbits/s    frame= 3694 fps=127 q=3.8 size=   21549kB time=00:02:33.90 bitrate=1147.0kbits/s    frame= 3766 fps=127 q=3.8 size=   21916kB time=00:02:36.90 bitrate=1144.3kbits/s    frame= 3816 fps=127 q=6.9 size=   22224kB time=00:02:39.00 bitrate=1145.0kbits/s    frame= 3889 fps=127 q=8.5 size=   22670kB time=00:02:42.03 bitrate=1146.2kbits/s    frame= 3962 fps=127 q=4.7 size=   23029kB time=00:02:45.06 bitrate=1142.9kbits/s    frame= 4034 fps=128 q=4.0 size=   23421kB time=00:02:48.06 bitrate=1141.6kbits/s    frame= 4101 fps=128 q=4.1 size=   23790kB time=00:02:50.86 bitrate=1140.6kbits/s    frame= 4175 fps=128 q=3.5 size=   24243kB time=00:02:53.96 bitrate=1141.6kbits/s    frame= 4248 fps=128 q=5.0 size=   24682kB time=00:02:57.00 bitrate=1142.4kbits/s    frame= 4319 fps=128 q=5.4 size=   25119kB time=00:02:59.96 bitrate=1143.4kbits/s    frame= 4384 fps=128 q=5.0 size=   25449kB time=00:03:02.66 bitrate=1141.3kbits/s    frame= 4457 fps=129 q=7.2 size=   25872kB time=00:03:05.70 bitrate=1141.3kbits/s    frame= 4530 fps=129 q=2.0 size=   26209kB time=00:03:08.73 bitrate=1137.6kbits/s    frame= 4608 fps=129 q=2.0 size=   26644kB time=00:03:12.00 bitrate=1136.8kbits/s    frame= 4695 fps=130 q=2.0 size=   26834kB time=00:03:15.60 bitrate=1123.9kbits/s    frame= 4776 fps=130 q=2.0 size=   27288kB time=00:03:19.00 bitrate=1123.3kbits/s    frame= 4850 fps=131 q=2.7 size=   27804kB time=00:03:22.06 bitrate=1127.2kbits/s    frame= 4931 fps=131 q=2.0 size=   28277kB time=00:03:25.46 bitrate=1127.4kbits/s    frame= 5014 fps=131 q=2.0 size=   28821kB time=00:03:28.90 bitrate=1130.2kbits/s    frame= 5103 fps=132 q=2.0 size=   29154kB time=00:03:32.60 bitrate=1123.4kbits/s    frame= 5124 fps=132 q=2.0 Lsize=   29204kB time=00:03:33.50 bitrate=1120.6kbits/s    
video:25660kB audio:3336kB subtitle:0 global headers:0kB muxing overhead 0.717666%
